/vscmnt/brussel_pixiu_data/_data_brussel/112/vsc11236/PredSimResults/SUBJ09mtu3D/worker6.mot
version=1
nRows=9
nColumns=50
inDegrees=yes
endheader
                time	         pelvis_tilt	         pelvis_list	     pelvis_rotation	           pelvis_tx	           pelvis_ty	           pelvis_tz	       hip_flexion_r	     hip_adduction_r	      hip_rotation_r	        knee_angle_r	       ankle_angle_r	         mtp_angle_r	       hip_flexion_l	     hip_adduction_l	      hip_rotation_l	        knee_angle_l	       ankle_angle_l	         mtp_angle_l	    lumbar_extension	      lumbar_bending	     lumbar_rotation	 ercspn_r/activation	 intobl_r/activation	 extobl_r/activation	    abd_r/activation	    add_r/activation	hamstrings_r/activation	bifemsh_r/activation	glut_max_r/activation	iliopsoas_r/activation	rect_fem_r/activation	  vasti_r/activation	gastroc_r/activation	 soleus_r/activation	tib_ant_r/activation	 ercspn_l/activation	 intobl_l/activation	 extobl_l/activation	    abd_l/activation	    add_l/activation	hamstrings_l/activation	bifemsh_l/activation	glut_max_l/activation	iliopsoas_l/activation	rect_fem_l/activation	  vasti_l/activation	gastroc_l/activation	 soleus_l/activation	tib_ant_l/activation	
          0.60268471	         -4.17352802	          2.70184547	         -8.46986194	          0.74732904	          0.98590149	          0.00629202	        -13.56618661	         -3.49061590	          3.70262008	         -8.76481343	         10.67209876	         28.24461164	         27.79881916	          0.57771744	         -5.49675334	         -3.17938349	          3.85913862	          0.26111588	        -13.45428741	         -1.32794101	          2.44354379	          0.03339808	          0.01000032	          0.01000043	          0.04325541	          0.01966757	          0.01575666	          0.15448065	          0.02055210	          0.28534565	          0.01000323	          0.01000034	          0.38603422	          0.27548904	          0.01000006	          0.04740536	          0.15474928	          0.02953614	          0.03516647	          0.11869115	          0.12252510	          0.22474493	          0.07917514	          0.14014653	          0.01314708	          0.01000020	          0.01003035	          0.01000026	          0.31008410	
          0.61473841	         -4.13862327	          2.77185047	         -8.40581040	          0.76639367	          0.98364225	          0.00597772	        -14.14866704	         -3.65876189	          3.24833554	         -9.81391428	          9.90930970	         30.06109472	         27.78748924	          0.78895878	         -5.48976571	         -5.09763936	          3.39049946	          0.21196320	        -13.04690784	         -1.70802244	          2.45166060	          0.02781364	          0.01000025	          0.01000060	          0.03601933	          0.01637794	          0.02382822	          0.12863809	          0.02080119	          0.28755964	          0.01000113	          0.01073618	          0.35750751	          0.25238762	          0.01000007	          0.03947527	          0.12886170	          0.02459512	          0.09201898	          0.10212142	          0.10202838	          0.18714809	          0.11131696	          0.11670176	          0.01095014	          0.01000011	          0.01200997	          0.01200928	          0.35524095	
          0.62679210	         -4.09437983	          2.84398756	         -8.30076220	          0.78556729	          0.98186020	          0.00559331	        -14.47984411	         -3.80991252	          2.76240616	        -11.32286452	          8.97310517	         31.93936789	         27.66565486	          1.00444920	         -5.49033943	         -6.84911584	          2.81692783	          0.20040151	        -12.64253578	         -2.09329100	          2.44099932	          0.06318669	          0.01000022	          0.01000042	          0.02999376	          0.01488356	          0.01986345	          0.10711866	          0.01732154	          0.31080225	          0.01000495	          0.01556235	          0.32449208	          0.21016696	          0.01000010	          0.03288660	          0.10730477	          0.02048068	          0.15195155	          0.12732675	          0.08496036	          0.15584072	          0.13932682	          0.09717902	          0.01000744	          0.01000011	          0.01000096	          0.01000037	          0.42067245	
          0.63884580	         -4.04263087	          2.90908910	         -8.15581007	          0.80454439	          0.98076776	          0.00512928	        -14.46137925	         -3.93394869	          2.26341254	        -13.42363300	          7.84529444	         33.79198801	         27.54126437	          1.22260462	         -5.50179999	         -8.59077535	          2.26650873	          0.16251443	        -12.27682242	         -2.47356317	          2.41035995	          0.08122532	          0.01000019	          0.01000026	          0.02497618	          0.04715024	          0.01654133	          0.08919920	          0.01442392	          0.32431535	          0.01001867	          0.01295912	          0.27020899	          0.17500868	          0.01000006	          0.04702627	          0.08935403	          0.01705453	          0.19342586	          0.17105775	          0.07074759	          0.12977063	          0.16472213	          0.08092218	          0.01001115	          0.01457461	          0.01000082	          0.01000099	          0.43696295	
          0.65089949	         -3.98358136	          2.96354014	         -7.97141746	          0.82311317	          0.98045177	          0.00461174	        -13.99576533	         -4.02681349	          1.76026842	        -16.26892106	          6.56759068	         35.40086307	         27.45021268	          1.43306188	         -5.52811089	        -10.40534202	          1.93066475	          0.13095151	        -11.97144110	         -2.84886401	          2.35516114	          0.11738019	          0.01000017	          0.01000025	          0.02079799	          0.08931764	          0.01377493	          0.07427755	          0.01201101	          0.29957867	          0.01000068	          0.01079127	          0.22500639	          0.14573192	          0.01000025	          0.04472687	          0.07440623	          0.01420154	          0.21516416	          0.19220569	          0.05891249	          0.10806178	          0.17721825	          0.06738492	          0.01001164	          0.06417308	          0.01000065	          0.01000069	          0.43490653	
          0.66295318	         -3.91918686	          3.00131206	         -7.74581972	          0.84117078	          0.98095037	          0.00407022	        -13.04406569	         -4.08912658	          1.25136468	        -19.90570984	          5.22133110	         36.30887898	         27.29943856	          1.63758521	         -5.54537817	        -12.10105573	          1.77362904	          0.10165703	        -11.73319137	         -3.21420948	          2.27140315	          0.12813252	          0.01000017	          0.01000028	          0.01731875	          0.10970364	          0.01147125	          0.06185255	          0.01000176	          0.24946302	          0.01000041	          0.01000005	          0.18736561	          0.12135279	          0.01000018	          0.03724501	          0.06195902	          0.01182584	          0.21561372	          0.18385714	          0.04905733	          0.08998459	          0.17259023	          0.05611227	          0.01001294	          0.10617716	          0.01000065	          0.01000071	          0.41249736	
          0.67500688	         -3.85146340	          3.01729028	         -7.47828045	          0.85871295	          0.98220861	          0.00353600	        -11.64308686	         -4.12912611	          0.73957370	        -24.24445376	          3.82537685	         36.14439214	         27.01324466	          1.83973693	         -5.51784944	        -13.54321521	          1.80085468	          0.08199936	        -11.55724001	         -3.56498922	          2.15689077	          0.12616430	          0.01000017	          0.01000029	          0.01442154	          0.12100906	          0.01000168	          0.06093927	          0.01000005	          0.20773097	          0.01000023	          0.01000002	          0.15602166	          0.10105199	          0.01000024	          0.03101451	          0.05159407	          0.01000011	          0.21132514	          0.16852082	          0.04471441	          0.07493156	          0.16433845	          0.04672539	          0.01001046	          0.12688617	          0.01000044	          0.01000046	          0.37526724	
          0.68706057	         -3.78297372	          3.00416327	         -7.16735380	          0.87576926	          0.98410310	          0.00304462	         -9.87682652	         -4.14633864	          0.24935231	        -29.06073547	          2.18091356	         34.99867200	         26.56594062	          2.03589919	         -5.41471599	        -14.68370970	          1.99587856	          0.07955069	        -11.43474549	         -3.89500775	          2.00919684	          0.10505990	          0.01000022	          0.01000780	          0.01200901	          0.13523374	          0.01441895	          0.06849209	          0.01000006	          0.17298017	          0.01000017	          0.01000002	          0.12992117	          0.08414726	          0.01000016	          0.02582624	          0.04296304	          0.01000021	          0.20560867	          0.14032981	          0.04567484	          0.06239675	          0.14776921	          0.03890882	          0.01000499	          0.15793953	          0.01000028	          0.01000028	          0.32224469	
          0.69911427	         -3.71734445	          2.95634487	         -6.81201953	          0.89234534	          0.98652415	          0.00263682	         -7.83809148	         -4.12939868	         -0.17980462	        -34.10808628	          0.19394517	         32.91058929	         25.94367921	          2.22232408	         -5.20429402	        -15.48649936	          2.32490556	          0.12672057	        -11.36030977	         -4.20118442	          1.82667139	          0.11388393	          0.01824258	          0.05159834	          0.01000009	          0.12205982	          0.01200774	          0.05945619	          0.01000007	          0.14404276	          0.01000020	          0.01000002	          0.10818696	          0.07007048	          0.01000007	          0.02150591	          0.03577588	          0.01000022	          0.19297840	          0.11685447	          0.04160198	          0.05195887	          0.12304945	          0.03239987	          0.01000488	          0.16618163	          0.01000044	          0.01000042	          0.26833737	
